<svg data-v-423bf9ae="" xmlns="http://www.w3.org/2000/svg" viewBox="0 0 60 60" class="icon"><!----><!----><!----><defs data-v-423bf9ae=""><linearGradient data-v-423bf9ae="" gradientTransform="rotate(25)" id="6ebb18a0-b1dd-400a-a3f1-2ccd693e2493" x1="0%" y1="0%" x2="100%" y2="0%"><stop data-v-423bf9ae="" offset="0%" style="stop-color: rgb(0, 118, 221); stop-opacity: 1;"></stop><stop data-v-423bf9ae="" offset="100%" style="stop-color: rgb(230, 0, 233); stop-opacity: 1;"></stop></linearGradient></defs><g data-v-423bf9ae="" id="2fd3bf0b-5ee8-4746-935e-a150971212ad" transform="matrix(0.6669630408287048,0,0,0.6669630408287048,-3.3481545448303223,-3.3481545448303223)" stroke="none" fill="url(#6ebb18a0-b1dd-400a-a3f1-2ccd693e2493)"><path d="M18.709 67.404c.004.012.012.02.02.031l.078-.031c-.032.004-.067 0-.098 0zM60.97 46.339c-.016-.043-1.04-2.585-1.244-3.117l-.016.008c-1.173-2.71-2.39-5.116-3.629-7.247a56.176 56.176 0 0 0-9.547 2.648c-.047.016-2.589 1.04-3.121 1.248l.008.016c-2.878 1.248-5.413 2.542-7.638 3.864.587 2.44 1.392 5.069 2.452 7.892.031.082 1.306 3.199 1.338 3.281l-.008.008a55.758 55.758 0 0 0 4.795 8.78 68.24 68.24 0 0 0 7.482-2.354c.082-.027 3.203-1.306 3.281-1.338l.008.008a55.192 55.192 0 0 0 8.416-4.548 56.601 56.601 0 0 0-2.577-9.149z"></path><path d="M50 7.848C26.722 7.848 7.848 26.722 7.848 50S26.722 92.152 50 92.152 92.152 73.278 92.152 50 73.278 7.848 50 7.848zm36.661 28.737a5.492 5.492 0 0 1-2.002 4.251v.004l-.02.012a5.521 5.521 0 0 1-9.026-4.267 5.524 5.524 0 1 1 11.048 0zm-9.116-9.796l.02.02c.008.008.016.016.02.023a35.875 35.875 0 0 1 2.331 2.718l-.262.047a7.004 7.004 0 0 0-2.808 1.244.916.916 0 0 0-.145.109 33.141 33.141 0 0 0-1.521-1.998l-.023-.027c-7.615-7.982-19.363-12.781-30.384-11.4 0-.02-.004-.035-.008-.055a4.54 4.54 0 0 0-.074-.309 6.113 6.113 0 0 0-.426-1.24c0-.004-.004-.004-.004-.008a8.369 8.369 0 0 0-.199-.403v-.004a5.747 5.747 0 0 0-.207-.649c-.012-.031-.023-.063-.035-.086a1.31 1.31 0 0 0-.031-.082c-.035-.086-.078-.164-.117-.246l-.012-.027c12.742-2.286 25.715 2.544 33.885 12.373zM37.81 13.323a5.524 5.524 0 1 1 0 11.048 5.524 5.524 0 1 1 0-11.048zm-16.939 15.28c.023-.035.051-.07.074-.106 2.605-3.872 5.906-7.177 9.793-9.554 0 0 .004 0 .004-.004.004.125.008.25.016.375a7.01 7.01 0 0 0 .829 2.894c.055.098.106.192.164.282a32.298 32.298 0 0 0-7.669 7.173l-.004.004c-5.096 7.157-7.529 16.582-6.285 25.358a.418.418 0 0 0-.098.016h-.004c-.055.012-.137.027-.242.047a1.018 1.018 0 0 1-.129.031c-.082.023-.172.043-.266.066-.199.059-.943.254-1.122.301l-.047.012c-.035.012-.07.02-.106.031l-.203.059c-.164.047-.317.098-.446.137a5.008 5.008 0 0 0-.25.094 3.795 3.795 0 0 0-.184.086c-.027.012-.059.027-.09.039-1.74-9.726.661-19.585 6.265-27.341zm-2.065 38.801l-.078.031c-.008-.012-.016-.02-.02-.031a5.526 5.526 0 0 1 .199-11.048 5.526 5.526 0 1 1 0 11.052.87.87 0 0 1-.101-.004zm38.132 17.544h-.008c-14.459 2.878-29.32-3.453-37.228-15.902a7.232 7.232 0 0 0 3.105-1.091c7.212 10.771 20.259 16.289 33.012 13.962.074.524.196 1.04.403 1.56.02.055.039.11.059.16.18.458.418.896.684 1.302-.011.001-.019.005-.027.009zm.196-7.888c-.637.555-1.216 1.768-1.177 2.781 0 .066.004.129.012.192-.016-.008-.027-.016-.043-.023-4.212-2.167-8.948-6.48-13.188-12.652-7.56 1.545-13.72 1.142-18.37-.665a7.325 7.325 0 0 0 1.572-2.777c3.602 1.244 8.541 1.69 14.932.555a66.388 66.388 0 0 1-4.298-8.409l.012-.008c-.199-.489-1.259-3.097-1.291-3.164a71.955 71.955 0 0 1-2.347-7.325c-5.041 3.461-8.15 7.028-9.938 10.313a7.176 7.176 0 0 0-2.98-1.119c2.194-4.314 6.125-8.6 12.151-12.519-1.467-7.423-1.048-13.481.731-18.065a7.316 7.316 0 0 0 2.777 1.568c-1.228 3.563-1.682 8.432-.594 14.721a72.281 72.281 0 0 1 7.11-3.52v-.008c.078-.031 3.125-1.263 3.207-1.298a68.798 68.798 0 0 1 8.76-2.687c-3.5-5.159-7.122-8.322-10.45-10.133a7.172 7.172 0 0 0 1.119-2.984c4.38 2.229 8.733 6.25 12.703 12.429 7.044-1.255 13.289-1.095 17.767.109a7.013 7.013 0 0 0-1.314 3.391c-3.547-.708-8.659-1.029-14.545-.305a74.338 74.338 0 0 1 3.207 6.551h.008a359.4 359.4 0 0 0 1.298 3.211 68.265 68.265 0 0 1 2.542 8.17c5.037-3.825 8.541-7.904 10.505-11.029.027-.039.047-.074.07-.109.074.117.168.231.285.344h.004c.634.626 1.869 1.158 2.851 1.04-2.19 4.282-6.602 9.105-12.933 13.407 1.341 7.356 1.15 13.86-.16 18.424l-.012.039c-.051-.059-.11-.113-.168-.168-.004-.004-.008-.004-.012-.008-.548-.493-1.369-.86-2.131-1.001-.004 0-.008-.004-.012-.004h-.004a3.12 3.12 0 0 0-1.052-.031l.035-.168c.763-3.594 1.122-8.917.34-15.073a66.749 66.749 0 0 1-7.861 3.977l-.008-.016-3.164 1.291a73.113 73.113 0 0 1-6.727 2.19c3.798 4.967 7.834 8.416 10.931 10.352.023.016.043.031.066.043a1.64 1.64 0 0 0-.216.17zm5.827 9.683a5.522 5.522 0 0 1-5.522-5.526 5.525 5.525 0 1 1 5.522 5.526zm6.907-6.875a6.97 6.97 0 0 0-1.338-3.019c9.511-7.662 15.378-21.025 13.403-33.286a7.017 7.017 0 0 0 3.054-1.15c2.531 13.868-4.102 29.011-15.119 37.455z"></path><path d="M50 8.02c23.185 0 41.98 18.795 41.98 41.98S73.185 91.98 50 91.98 8.02 73.185 8.02 50 26.815 8.02 50 8.02m0-3C25.198 5.02 5.02 25.198 5.02 50S25.198 94.98 50 94.98 94.98 74.802 94.98 50 74.802 5.02 50 5.02z"></path></g><!----></svg>